<svg width="48" height="48" xmlns="http://www.w3.org/2000/svg">

 <g>
  <title>background</title>
  <rect fill="none" id="canvas_background" height="402" width="582" y="-1" x="-1"/>
 </g>
 <g>
  <title>Layer 1</title>
  <path id="svg_2" fill="#000000" d="m25.037661,20.73608l0,-3.720699c0,-0.3799 0.4135,-0.603401 0.726299,-0.402302l9.3855,5.921801c0.301701,0.190001 0.301701,0.614601 0,0.804501l-5.184401,3.2738l-1.8659,1.184299l-2.335199,1.474901c-0.312901,0.201099 -0.726299,-0.033501 -0.726299,-0.402201l0,-3.240299l0,-0.4916"/>
  <path id="svg_3" fill="#000000" d="m29.965059,26.61318l-1.8659,1.184299l-2.335199,1.474901c-0.312799,0.201099 -0.726299,-0.033501 -0.726299,-0.402201l0,-3.240299l0,-0.4916c-2.575901,0.1057 -5.718,-0.357801 -7.843901,0.611198c-1.9663,0.896301 -3.5457,2.5639 -4.2666,4.601501c-0.128201,0.362299 -0.2296,0.734098 -0.3029,1.111399l0,-2.972099c0,-1.128 0.2449,-2.251301 0.7168,-3.2759c0.4588,-0.996099 1.1271,-1.8927 1.948,-2.6196c0.824901,-0.7306 1.801301,-1.2869 2.8523,-1.6189c1.511101,-0.4774 3.1532,-0.4118 4.7155,-0.309599c0.725201,0.047499 1.4538,0.069799 2.180801,0.069799"/>
 </g>
</svg>